<svg xmlns="http://www.w3.org/2000/svg" width="256" height="256" viewBox="0 0 256 256" fill="none"><rect width="256" height="256" rx="56" fill="#25D366"/><path d="M128 48c-39.76 0-72 32.24-72 72 0 12.25 3.15 23.77 8.67 33.8L56 208l55.06-8.53A79.6 79.6 0 0 0 128 192c39.76 0 72-32.24 72-72s-32.24-72-72-72Zm0 16c30.93 0 56 25.07 56 56s-25.07 56-56 56a55.6 55.6 0 0 1-25.8-6.5l-3.25-1.7-32.23 5 6.1-31.1-1.93-3.26A55.63 55.63 0 0 1 72 120c0-30.93 25.07-56 56-56Zm32.42 81.66c-1.73-.87-10.2-5.02-11.8-5.6-1.6-.58-2.77-.87-3.94.88-1.16 1.74-4.51 5.6-5.54 6.76-1.02 1.16-2.04 1.31-3.77.44-1.73-.87-7.29-2.67-13.9-8.52-5.14-4.58-8.6-10.23-9.62-11.98-1.02-1.74-.11-2.69.76-3.56.78-.77 1.73-2.03 2.6-3.05.87-1.02 1.16-1.74 1.74-2.9.58-1.16.29-2.18-.15-3.05-.44-.87-3.94-9.51-5.4-12.99-1.42-3.42-2.87-2.96-3.94-3.01-1.02-.05-2.19-.06-3.36-.06-1.16 0-3.05.43-4.65 2.18-1.6 1.74-6.1 5.96-6.1 14.54 0 8.58 6.25 16.86 7.13 18.02.87 1.16 12.1 18.48 29.3 25.25 17.21 6.77 17.21 4.51 20.31 4.22 3.1-.29 10.2-4.15 11.63-8.16 1.42-4.02 1.42-7.45.99-8.16-.44-.72-1.73-1.16-3.46-2.03Z" fill="#fff"/></svg>
